<svg data-v-423bf9ae="" xmlns="http://www.w3.org/2000/svg" viewBox="0 0 274.5753988677303 200" class="iconAboveSlogan"><!----><defs data-v-423bf9ae=""><linearGradient data-v-423bf9ae="" gradientTransform="rotate(25)" id="df2f1eff-dd9f-4321-a4bc-10152e8e7c5d" x1="0%" y1="0%" x2="100%" y2="0%"><stop data-v-423bf9ae="" offset="0%" style="stop-color: rgb(175, 97, 96); stop-opacity: 1;"></stop><stop data-v-423bf9ae="" offset="100%" style="stop-color: rgb(103, 35, 35); stop-opacity: 1;"></stop></linearGradient></defs><!----><g data-v-423bf9ae="" id="b2fa4670-749f-4ace-b3f3-adce3ee038f1" fill="#ffffff" transform="matrix(5.853238110442626,0,0,5.853238110442626,-0.8194496014435231,95.95009177299416)"><path d="M3.35 14L5.33 14C5.54 14 5.67 13.96 5.67 13.75C5.67 13.50 5.19 13.55 5.19 13.02L5.21 5.94C5.21 5.67 5.32 5.56 5.57 5.56L7.36 5.56C7.91 5.56 7.78 5.98 8.06 5.98C8.25 5.98 8.33 5.81 8.33 5.28L8.33 4.49C8.33 4.28 8.19 4.20 7.99 4.20L0.50 4.20C0.25 4.20 0.14 4.28 0.14 4.52L0.14 5.40C0.14 5.81 0.21 5.92 0.39 5.92C0.66 5.92 0.50 5.54 1.32 5.54L3.12 5.56C3.46 5.56 3.51 5.70 3.51 5.95L3.49 13.01C3.49 13.51 3.00 13.52 3.00 13.78C3.00 13.96 3.14 14 3.35 14ZM8.89 9.16C8.89 12.52 11.34 14.20 13.82 14.24C16.37 14.28 18.94 12.59 18.94 9.16C18.94 5.71 16.48 4.02 13.99 3.99C11.45 3.98 8.89 5.71 8.89 9.16ZM10.57 9.16C10.57 6.69 12.28 5.47 13.97 5.49C15.64 5.50 17.30 6.72 17.30 9.16C17.30 11.58 15.58 12.78 13.87 12.75C12.21 12.73 10.57 11.52 10.57 9.16ZM20.31 9.72L25.41 9.72C25.56 9.72 25.69 9.63 25.69 9.46L25.69 8.60C25.69 8.39 25.59 8.30 25.38 8.30L20.34 8.30C20.16 8.30 20.06 8.40 20.06 8.55L20.06 9.45C20.06 9.59 20.12 9.72 20.31 9.72ZM27.71 14L31.64 14C34.50 14 36.30 11.80 36.30 9.03C36.30 6.23 34.47 4.20 31.63 4.20L27.75 4.20C27.45 4.20 27.12 4.17 27.12 4.41C27.12 4.76 27.64 4.58 27.64 5.43L27.64 12.81C27.64 13.54 27.09 13.36 27.09 13.72C27.09 13.97 27.43 14 27.71 14ZM29.53 12.56C29.26 12.56 29.19 12.50 29.19 12.18L29.19 5.95C29.19 5.77 29.30 5.66 29.53 5.66L31.18 5.64C33.24 5.63 34.61 6.50 34.61 9.00C34.61 11.44 33.31 12.56 31.18 12.56ZM37.00 9.16C37.00 12.52 39.45 14.20 41.93 14.24C44.48 14.28 47.05 12.59 47.05 9.16C47.05 5.71 44.59 4.02 42.10 3.99C39.56 3.98 37.00 5.71 37.00 9.16ZM38.68 9.16C38.68 6.69 40.39 5.47 42.08 5.49C43.75 5.50 45.42 6.72 45.42 9.16C45.42 11.58 43.69 12.78 41.99 12.75C40.32 12.73 38.68 11.52 38.68 9.16Z"></path></g><!----><g data-v-423bf9ae="" id="4cc9e67a-fda7-4b65-bd11-eae6ba274140" transform="matrix(1.0868111504448785,0,0,1.0868111504448785,82.74473429518693,-0.23894260335429607)" stroke="none" fill="#ffffff"><g clip-rule="evenodd"><path d="M12.983 10.59l17.018 88.223-5.872-59.049 29.021-1.892-.054-9.883L64.549 1 53.622 18.977z"></path><path d="M59.389 54.548l5.16-53.541-8.74 39.716-19.612 1.045 1.57 20.462-7.766 36.583 12.057-39.899z"></path><path d="M62.8 67.182l.549-10.453-15.979 3.755-.032 11.797-17.337 26.532 21.68-27.616zM65.711 62.394l14.841-4.731 1.509-12.532-15.899 2.095zM72.07 44.502l10.988-1.417 1.581-10.278-8.079-.373L64.549 1l8.43 30.967z"></path><path d="M87.413 31.294l1.256-9.506-9.544-2.694L64.549 1l14.483 22.437-.422 7z"></path></g></g><!----><g data-v-423bf9ae="" id="4469ea8f-0179-4204-b572-b0e4ca81dec5" fill="#ffffff" transform="matrix(0.8215245169148844,0,0,0.8215245169148844,35.16986679004374,218.0964270962496)"><path d="M0.76 8.24L0.76 8.24L0.76 8.24Q0.76 6.92 1.37 5.72L1.37 5.72L1.37 5.72Q1.99 4.52 3.22 3.72L3.22 3.72L3.22 3.72Q4.46 2.92 6.08 2.92L6.08 2.92L6.08 2.92Q7.35 2.92 8.93 3.57L8.93 3.57L8.93 2.86L9.50 2.86L9.59 5.92L9.04 5.93L8.95 4.48L8.95 4.48Q8.87 4.41 8.59 4.24L8.59 4.24L8.59 4.24Q8.34 4.07 7.59 3.83L7.59 3.83L7.59 3.83Q6.86 3.60 5.96 3.60L5.96 3.60L5.96 3.60Q4.98 3.60 4.21 3.93L4.21 3.93L4.21 3.93Q3.45 4.27 2.98 4.83L2.98 4.83L2.98 4.83Q2.52 5.39 2.27 6.08L2.27 6.08L2.27 6.08Q2.02 6.78 2.02 7.57L2.02 7.57L2.02 7.57Q2.02 9.33 3.14 10.69L3.14 10.69L3.14 10.69Q4.26 12.05 6.12 12.05L6.12 12.05L6.12 12.05Q6.82 12.05 7.45 11.85L7.45 11.85L7.45 11.85Q8.08 11.66 8.30 11.48L8.30 11.48L8.54 11.28L8.54 8.78L6.88 8.78L6.86 8.23L10.73 8.23L10.74 8.78L9.67 8.78L9.67 11.64L8.89 11.98L8.89 11.98Q8.19 12.30 7.96 12.39L7.96 12.39L7.96 12.39Q7.71 12.48 7.07 12.61L7.07 12.61L7.07 12.61Q6.46 12.74 5.85 12.74L5.85 12.74L5.85 12.74Q4.55 12.74 3.58 12.37L3.58 12.37L3.58 12.37Q2.59 12.00 1.98 11.36L1.98 11.36L1.98 11.36Q1.39 10.76 1.07 9.94L1.07 9.94L1.07 9.94Q0.76 9.15 0.76 8.24ZM18.49 3.64L18.48 3.08L25.69 3.08L25.69 3.08Q25.70 4.14 25.76 5.28L25.76 5.28L25.21 5.30L25.21 5.30Q25.20 4.66 25.14 4.25L25.14 4.25L25.14 4.25Q25.10 3.89 25.05 3.80L25.05 3.80L25.05 3.80Q24.99 3.71 24.88 3.69L24.88 3.69L24.88 3.69Q24.78 3.68 24.19 3.68L24.19 3.68L21.81 3.68L21.81 3.68Q21.27 3.68 21.12 3.77L21.12 3.77L21.12 3.77Q21 3.86 21 4.33L21 4.33L21 6.28L21 6.28Q21 6.69 21.05 6.76L21.05 6.76L21.05 6.76Q21.12 6.84 21.46 6.84L21.46 6.84L23.58 6.84L23.58 6.84Q23.94 6.84 24.02 6.73L24.02 6.73L24.02 6.73Q24.10 6.63 24.11 6.14L24.11 6.14L24.11 5.61L24.62 5.63L24.62 8.97L24.11 8.97L24.11 8.24L24.11 8.24Q24.11 7.66 24.04 7.57L24.04 7.57L24.04 7.57Q23.95 7.46 23.60 7.46L23.60 7.46L21.51 7.46L21.51 7.46Q21.17 7.46 21.09 7.54L21.09 7.54L21.09 7.54Q21 7.63 21 7.89L21 7.89L21 11.20L21 11.20Q21 11.57 21.09 11.67L21.09 11.67L21.09 11.67Q21.17 11.77 21.44 11.77L21.44 11.77L21.44 11.77Q24.36 11.75 24.89 11.69L24.89 11.69L24.89 11.69Q25.41 11.63 25.49 11.38L25.49 11.38L25.50 11.36L25.50 11.35L25.73 10.17L26.21 10.25L25.86 12.41L18.76 12.41L18.76 11.87L19.13 11.87L19.13 11.87Q19.69 11.87 19.77 11.80L19.77 11.80L19.77 11.80Q19.87 11.72 19.87 11.33L19.87 11.33L19.87 4.24L19.87 4.24Q19.87 3.82 19.71 3.73L19.71 3.73L19.71 3.73Q19.54 3.64 18.89 3.64L18.89 3.64L18.49 3.64ZM34.36 5.35L33.87 5.33L33.87 5.33Q33.99 4.17 34.07 3.08L34.07 3.08L42.15 3.08L42.15 3.08Q42.07 4.13 42.04 4.53L42.04 4.53L42.04 4.53Q42 5.26 41.98 5.32L41.98 5.32L41.48 5.30L41.48 5.30Q41.56 4.34 41.56 4.16L41.56 4.16L41.56 4.16Q41.56 3.88 41.42 3.79L41.42 3.79L41.42 3.79Q41.25 3.69 40.84 3.69L40.84 3.69L39.24 3.69L39.24 3.69Q38.73 3.69 38.61 3.79L38.61 3.79L38.61 3.79Q38.51 3.87 38.51 4.36L38.51 4.36L38.51 11.22L38.51 11.22Q38.51 11.66 38.65 11.76L38.65 11.76L38.65 11.76Q38.81 11.87 39.32 11.87L39.32 11.87L39.88 11.87L39.89 12.41L36.20 12.40L36.20 11.87L36.42 11.87L36.42 11.87Q37.09 11.87 37.24 11.79L37.24 11.79L37.24 11.79Q37.38 11.70 37.38 11.28L37.38 11.28L37.38 4.48L37.38 4.48Q37.38 3.92 37.28 3.80L37.28 3.80L37.28 3.80Q37.18 3.69 36.76 3.69L36.76 3.69L35.29 3.69L35.29 3.69Q35.10 3.69 35.03 3.71L35.03 3.71L35.03 3.71Q34.97 3.72 34.86 3.72L34.86 3.72L34.86 3.72Q34.83 3.72 34.71 3.79L34.71 3.79L34.71 3.79Q34.63 3.84 34.60 3.86L34.60 3.86L34.60 3.86Q34.58 3.88 34.54 3.99L34.54 3.99L34.54 3.99Q34.51 4.05 34.48 4.14L34.48 4.14L34.48 4.14Q34.45 4.21 34.43 4.36L34.43 4.36L34.43 4.36Q34.41 4.59 34.41 4.61L34.41 4.61L34.41 4.61Q34.41 4.80 34.39 4.95L34.39 4.95L34.39 4.95Q34.39 5.02 34.38 5.15L34.38 5.15L34.38 5.15Q34.38 5.29 34.36 5.35L34.36 5.35ZM60.05 3.64L59.46 3.64L59.47 3.08L62.99 3.08L62.99 3.64L62.75 3.64L62.75 3.64Q62.21 3.64 62.04 3.73L62.04 3.73L62.04 3.73Q61.90 3.81 61.90 4.28L61.90 4.28L61.90 11.22L61.90 11.22Q61.90 11.68 62.01 11.77L62.01 11.77L62.01 11.77Q62.12 11.87 62.65 11.87L62.65 11.87L63.20 11.87L63.21 12.41L59.63 12.41L59.62 11.87L59.98 11.87L59.98 11.87Q60.54 11.87 60.65 11.77L60.65 11.77L60.65 11.77Q60.76 11.67 60.76 11.25L60.76 11.25L60.76 4.14L60.76 4.14Q60.76 3.77 60.66 3.71L60.66 3.71L60.66 3.71Q60.55 3.64 60.05 3.64L60.05 3.64ZM71.23 5.35L70.73 5.33L70.73 5.33Q70.85 4.17 70.94 3.08L70.94 3.08L79.02 3.08L79.02 3.08Q78.93 4.13 78.91 4.53L78.91 4.53L78.91 4.53Q78.87 5.26 78.85 5.32L78.85 5.32L78.35 5.30L78.35 5.30Q78.43 4.34 78.43 4.16L78.43 4.16L78.43 4.16Q78.43 3.88 78.29 3.79L78.29 3.79L78.29 3.79Q78.11 3.69 77.71 3.69L77.71 3.69L76.10 3.69L76.10 3.69Q75.60 3.69 75.48 3.79L75.48 3.79L75.48 3.79Q75.38 3.87 75.37 4.36L75.37 4.36L75.37 11.22L75.37 11.22Q75.37 11.66 75.52 11.76L75.52 11.76L75.52 11.76Q75.67 11.87 76.19 11.87L76.19 11.87L76.75 11.87L76.76 12.41L73.07 12.40L73.07 11.87L73.29 11.87L73.29 11.87Q73.96 11.87 74.10 11.79L74.10 11.79L74.10 11.79Q74.25 11.70 74.25 11.28L74.25 11.28L74.25 4.48L74.25 4.48Q74.25 3.92 74.15 3.80L74.15 3.80L74.15 3.80Q74.05 3.69 73.62 3.69L73.62 3.69L72.15 3.69L72.15 3.69Q71.97 3.69 71.90 3.71L71.90 3.71L71.90 3.71Q71.83 3.72 71.72 3.72L71.72 3.72L71.72 3.72Q71.70 3.72 71.58 3.79L71.58 3.79L71.58 3.79Q71.50 3.84 71.47 3.86L71.47 3.86L71.47 3.86Q71.44 3.88 71.40 3.99L71.40 3.99L71.40 3.99Q71.37 4.05 71.35 4.14L71.35 4.14L71.35 4.14Q71.32 4.21 71.30 4.36L71.30 4.36L71.30 4.36Q71.27 4.59 71.27 4.61L71.27 4.61L71.27 4.61Q71.27 4.80 71.26 4.95L71.26 4.95L71.26 4.95Q71.26 5.02 71.25 5.15L71.25 5.15L71.25 5.15Q71.24 5.29 71.23 5.35L71.23 5.35ZM96.37 3.64L96.33 3.08L100.11 3.08L100.11 3.08Q101.42 3.08 102.29 3.19L102.29 3.19L102.29 3.19Q103.11 3.29 103.80 3.69L103.80 3.69L103.80 3.69Q104.75 4.27 105.26 5.24L105.26 5.24L105.26 5.24Q105.75 6.21 105.75 7.39L105.75 7.39L105.75 7.39Q105.75 8.05 105.61 8.65L105.61 8.65L105.61 8.65Q105.45 9.29 105.06 9.98L105.06 9.98L105.06 9.98Q104.63 10.73 104.07 11.21L104.07 11.21L104.07 11.21Q103.44 11.76 102.47 12.08L102.47 12.08L102.47 12.08Q101.47 12.41 100.19 12.41L100.19 12.41L96.58 12.41L96.56 11.87L96.94 11.87L96.94 11.87Q97.46 11.87 97.56 11.79L97.56 11.79L97.56 11.79Q97.67 11.70 97.67 11.25L97.67 11.25L97.67 4.14L97.67 4.14Q97.67 3.77 97.58 3.71L97.58 3.71L97.58 3.71Q97.47 3.64 96.95 3.64L96.95 3.64L96.37 3.64ZM98.81 4.39L98.81 11.22L98.81 11.22Q98.81 11.67 98.97 11.77L98.97 11.77L98.97 11.77Q99.13 11.87 100.00 11.87L100.00 11.87L100.00 11.87Q101.05 11.87 101.84 11.61L101.84 11.61L101.84 11.61Q102.70 11.35 103.13 10.99L103.13 10.99L103.13 10.99Q103.63 10.58 103.93 10.05L103.93 10.05L103.93 10.05Q104.23 9.52 104.36 8.96L104.36 8.96L104.36 8.96Q104.49 8.41 104.49 7.82L104.49 7.82L104.49 7.82Q104.49 7.03 104.22 6.34L104.22 6.34L104.22 6.34Q103.95 5.65 103.43 5.05L103.43 5.05L103.43 5.05Q102.89 4.46 101.99 4.09L101.99 4.09L101.99 4.09Q101.06 3.73 99.90 3.73L99.90 3.73L99.38 3.73L99.38 3.73Q99.02 3.73 98.92 3.85L98.92 3.85L98.92 3.85Q98.81 3.99 98.81 4.39L98.81 4.39ZM114.11 7.83L114.11 7.83L114.11 7.83Q114.11 6.62 114.51 5.68L114.51 5.68L114.51 5.68Q114.93 4.72 115.62 4.12L115.62 4.12L115.62 4.12Q116.31 3.51 117.17 3.19L117.17 3.19L117.17 3.19Q118.01 2.88 118.96 2.88L118.96 2.88L118.96 2.88Q120.22 2.88 121.27 3.40L121.27 3.40L121.27 3.40Q122.35 3.93 123.06 5.07L123.06 5.07L123.06 5.07Q123.76 6.17 123.76 7.75L123.76 7.75L123.76 7.75Q123.76 8.70 123.46 9.54L123.46 9.54L123.46 9.54Q123.15 10.38 122.54 11.10L122.54 11.10L122.54 11.10Q121.94 11.81 121.00 12.22L121.00 12.22L121.00 12.22Q120.04 12.63 118.85 12.64L118.85 12.64L118.85 12.64Q117.71 12.64 116.78 12.23L116.78 12.23L116.78 12.23Q115.84 11.83 115.28 11.14L115.28 11.14L115.28 11.14Q114.71 10.45 114.41 9.60L114.41 9.60L114.41 9.60Q114.11 8.72 114.11 7.83ZM115.36 7.38L115.36 7.38L115.36 7.38Q115.36 8.52 115.79 9.60L115.79 9.60L115.79 9.60Q116.20 10.64 117.13 11.33L117.13 11.33L117.13 11.33Q118.04 12.03 119.23 12.04L119.23 12.04L119.23 12.04Q120.60 12.04 121.54 11.01L121.54 11.01L121.54 11.01Q122.49 9.97 122.49 8.10L122.49 8.10L122.49 8.10Q122.49 5.99 121.32 4.72L121.32 4.72L121.32 4.72Q120.18 3.46 118.67 3.45L118.67 3.45L118.67 3.45Q118.15 3.45 117.60 3.65L117.60 3.65L117.60 3.65Q117.06 3.85 116.55 4.25L116.55 4.25L116.55 4.25Q116.01 4.68 115.68 5.48L115.68 5.48L115.68 5.48Q115.36 6.27 115.36 7.38ZM131.89 3.64L131.88 3.08L134.05 3.08L139.79 10.48L139.79 4.14L139.79 4.14Q139.79 3.81 139.63 3.72L139.63 3.72L139.63 3.72Q139.48 3.64 139.02 3.64L139.02 3.64L138.53 3.64L138.56 3.08L141.54 3.08L141.54 3.64L141.22 3.64L141.22 3.64Q140.75 3.64 140.60 3.75L140.60 3.75L140.60 3.75Q140.45 3.86 140.45 4.25L140.45 4.25L140.45 12.32L140.45 12.47L140.45 12.47Q140.45 12.52 140.44 12.57L140.44 12.57L140.44 12.57Q140.42 12.61 140.39 12.64L140.39 12.64L140.39 12.64Q140.38 12.65 140.32 12.65L140.32 12.65L140.13 12.65L140.07 12.65L140.04 12.65L140.01 12.64L140.01 12.64Q139.99 12.64 139.97 12.63L139.97 12.63L139.97 12.63Q139.96 12.61 139.96 12.60L139.96 12.60L139.96 12.60Q139.96 12.58 139.95 12.57L139.95 12.57L139.95 12.57Q139.92 12.54 139.89 12.50L139.89 12.50L139.89 12.50Q139.88 12.48 139.86 12.45L139.86 12.45L139.86 12.45Q139.84 12.41 139.82 12.40L139.82 12.40L133.72 4.56L133.79 11.22L133.79 11.22Q133.79 11.67 133.95 11.77L133.95 11.77L133.95 11.77Q134.11 11.87 134.82 11.87L134.82 11.87L135.06 11.87L135.06 12.41L132.12 12.41L132.12 11.87L132.54 11.87L132.54 11.87Q132.92 11.87 133.03 11.76L133.03 11.76L133.03 11.76Q133.12 11.66 133.13 11.25L133.13 11.25L133.13 3.80L132.99 3.64L131.89 3.64ZM149.29 3.64L149.28 3.08L156.49 3.08L156.49 3.08Q156.50 4.14 156.56 5.28L156.56 5.28L156.01 5.30L156.01 5.30Q156.00 4.66 155.94 4.25L155.94 4.25L155.94 4.25Q155.90 3.89 155.85 3.80L155.85 3.80L155.85 3.80Q155.79 3.71 155.67 3.69L155.67 3.69L155.67 3.69Q155.58 3.68 154.99 3.68L154.99 3.68L152.61 3.68L152.61 3.68Q152.07 3.68 151.92 3.77L151.92 3.77L151.92 3.77Q151.80 3.86 151.80 4.33L151.80 4.33L151.80 6.28L151.80 6.28Q151.80 6.69 151.85 6.76L151.85 6.76L151.85 6.76Q151.92 6.84 152.26 6.84L152.26 6.84L154.38 6.84L154.38 6.84Q154.74 6.84 154.82 6.73L154.82 6.73L154.82 6.73Q154.90 6.63 154.91 6.14L154.91 6.14L154.91 5.61L155.42 5.63L155.42 8.97L154.91 8.97L154.91 8.24L154.91 8.24Q154.91 7.66 154.83 7.57L154.83 7.57L154.83 7.57Q154.75 7.46 154.40 7.46L154.40 7.46L152.30 7.46L152.30 7.46Q151.97 7.46 151.88 7.54L151.88 7.54L151.88 7.54Q151.80 7.63 151.80 7.89L151.80 7.89L151.80 11.20L151.80 11.20Q151.80 11.57 151.88 11.67L151.88 11.67L151.88 11.67Q151.97 11.77 152.24 11.77L152.24 11.77L152.24 11.77Q155.16 11.75 155.69 11.69L155.69 11.69L155.69 11.69Q156.21 11.63 156.29 11.38L156.29 11.38L156.30 11.36L156.30 11.35L156.53 10.17L157.01 10.25L156.66 12.41L149.56 12.41L149.56 11.87L149.93 11.87L149.93 11.87Q150.49 11.87 150.57 11.80L150.57 11.80L150.57 11.80Q150.66 11.72 150.66 11.33L150.66 11.33L150.66 4.24L150.66 4.24Q150.66 3.82 150.51 3.73L150.51 3.73L150.51 3.73Q150.34 3.64 149.69 3.64L149.69 3.64L149.29 3.64ZM174.73 5.35L174.23 5.33L174.23 5.33Q174.36 4.17 174.44 3.08L174.44 3.08L182.52 3.08L182.52 3.08Q182.44 4.13 182.41 4.53L182.41 4.53L182.41 4.53Q182.37 5.26 182.35 5.32L182.35 5.32L181.85 5.30L181.85 5.30Q181.93 4.34 181.93 4.16L181.93 4.16L181.93 4.16Q181.93 3.88 181.79 3.79L181.79 3.79L181.79 3.79Q181.62 3.69 181.21 3.69L181.21 3.69L179.61 3.69L179.61 3.69Q179.10 3.69 178.98 3.79L178.98 3.79L178.98 3.79Q178.88 3.87 178.88 4.36L178.88 4.36L178.88 11.22L178.88 11.22Q178.88 11.66 179.02 11.76L179.02 11.76L179.02 11.76Q179.18 11.87 179.69 11.87L179.69 11.87L180.25 11.87L180.26 12.41L176.57 12.40L176.57 11.87L176.79 11.87L176.79 11.87Q177.46 11.87 177.60 11.79L177.60 11.79L177.60 11.79Q177.75 11.70 177.75 11.28L177.75 11.28L177.75 4.48L177.75 4.48Q177.75 3.92 177.65 3.80L177.65 3.80L177.65 3.80Q177.55 3.69 177.13 3.69L177.13 3.69L175.66 3.69L175.66 3.69Q175.47 3.69 175.40 3.71L175.40 3.71L175.40 3.71Q175.33 3.72 175.23 3.72L175.23 3.72L175.23 3.72Q175.20 3.72 175.08 3.79L175.08 3.79L175.08 3.79Q175 3.84 174.97 3.86L174.97 3.86L174.97 3.86Q174.95 3.88 174.90 3.99L174.90 3.99L174.90 3.99Q174.88 4.05 174.85 4.14L174.85 4.14L174.85 4.14Q174.82 4.21 174.80 4.36L174.80 4.36L174.80 4.36Q174.77 4.59 174.77 4.61L174.77 4.61L174.77 4.61Q174.77 4.80 174.76 4.95L174.76 4.95L174.76 4.95Q174.76 5.02 174.75 5.15L174.75 5.15L174.75 5.15Q174.75 5.29 174.73 5.35L174.73 5.35ZM190.64 7.83L190.64 7.83L190.64 7.83Q190.64 6.62 191.04 5.68L191.04 5.68L191.04 5.68Q191.46 4.72 192.15 4.12L192.15 4.12L192.15 4.12Q192.84 3.51 193.70 3.19L193.70 3.19L193.70 3.19Q194.54 2.88 195.49 2.88L195.49 2.88L195.49 2.88Q196.75 2.88 197.80 3.40L197.80 3.40L197.80 3.40Q198.88 3.93 199.60 5.07L199.60 5.07L199.60 5.07Q200.29 6.17 200.30 7.75L200.30 7.75L200.30 7.75Q200.30 8.70 199.99 9.54L199.99 9.54L199.99 9.54Q199.68 10.38 199.08 11.10L199.08 11.10L199.08 11.10Q198.47 11.81 197.54 12.22L197.54 12.22L197.54 12.22Q196.57 12.63 195.38 12.64L195.38 12.64L195.38 12.64Q194.25 12.64 193.31 12.23L193.31 12.23L193.31 12.23Q192.38 11.83 191.82 11.14L191.82 11.14L191.82 11.14Q191.24 10.45 190.95 9.60L190.95 9.60L190.95 9.60Q190.64 8.72 190.64 7.83ZM191.90 7.38L191.90 7.38L191.90 7.38Q191.90 8.52 192.33 9.60L192.33 9.60L192.33 9.60Q192.73 10.64 193.66 11.33L193.66 11.33L193.66 11.33Q194.57 12.03 195.76 12.04L195.76 12.04L195.76 12.04Q197.13 12.04 198.07 11.01L198.07 11.01L198.07 11.01Q199.02 9.97 199.02 8.10L199.02 8.10L199.02 8.10Q199.02 5.99 197.86 4.72L197.86 4.72L197.86 4.72Q196.71 3.46 195.20 3.45L195.20 3.45L195.20 3.45Q194.68 3.45 194.14 3.65L194.14 3.65L194.14 3.65Q193.59 3.85 193.09 4.25L193.09 4.25L193.09 4.25Q192.54 4.68 192.22 5.48L192.22 5.48L192.22 5.48Q191.90 6.27 191.90 7.38ZM208.46 3.64L208.41 3.08L212.19 3.08L212.19 3.08Q213.51 3.08 214.38 3.19L214.38 3.19L214.38 3.19Q215.20 3.29 215.89 3.69L215.89 3.69L215.89 3.69Q216.84 4.27 217.35 5.24L217.35 5.24L217.35 5.24Q217.84 6.21 217.84 7.39L217.84 7.39L217.84 7.39Q217.84 8.05 217.70 8.65L217.70 8.65L217.70 8.65Q217.54 9.29 217.15 9.98L217.15 9.98L217.15 9.98Q216.72 10.73 216.16 11.21L216.16 11.21L216.16 11.21Q215.53 11.76 214.56 12.08L214.56 12.08L214.56 12.08Q213.55 12.41 212.28 12.41L212.28 12.41L208.67 12.41L208.65 11.87L209.03 11.87L209.03 11.87Q209.55 11.87 209.65 11.79L209.65 11.79L209.65 11.79Q209.76 11.70 209.76 11.25L209.76 11.25L209.76 4.14L209.76 4.14Q209.76 3.77 209.67 3.71L209.67 3.71L209.67 3.71Q209.56 3.64 209.04 3.64L209.04 3.64L208.46 3.64ZM210.90 4.39L210.90 11.22L210.90 11.22Q210.90 11.67 211.06 11.77L211.06 11.77L211.06 11.77Q211.22 11.87 212.08 11.87L212.08 11.87L212.08 11.87Q213.14 11.87 213.93 11.61L213.93 11.61L213.93 11.61Q214.79 11.35 215.22 10.99L215.22 10.99L215.22 10.99Q215.71 10.58 216.02 10.05L216.02 10.05L216.02 10.05Q216.32 9.52 216.45 8.96L216.45 8.96L216.45 8.96Q216.58 8.41 216.58 7.82L216.58 7.82L216.58 7.82Q216.58 7.03 216.31 6.34L216.31 6.34L216.31 6.34Q216.04 5.65 215.52 5.05L215.52 5.05L215.52 5.05Q214.98 4.46 214.07 4.09L214.07 4.09L214.07 4.09Q213.15 3.73 211.99 3.73L211.99 3.73L211.47 3.73L211.47 3.73Q211.11 3.73 211.00 3.85L211.00 3.85L211.00 3.85Q210.90 3.99 210.90 4.39L210.90 4.39ZM225.83 12.41L225.81 11.87L225.98 11.87L225.98 11.87Q226.37 11.87 226.50 11.73L226.50 11.73L226.50 11.73Q226.63 11.57 226.96 10.83L226.96 10.83L227.87 8.82L228.44 7.53L228.44 7.53Q228.71 6.97 228.75 6.86L228.75 6.86L228.75 6.86Q228.82 6.70 228.87 6.60L228.87 6.60L228.87 6.60Q228.92 6.51 228.94 6.45L228.94 6.45L229.03 6.21L230.46 2.74L230.75 2.74L230.75 2.74Q231.61 4.98 233.80 10.25L233.80 10.25L233.80 10.25Q234.25 11.34 234.44 11.64L234.44 11.64L234.44 11.64Q234.58 11.87 235.01 11.87L235.01 11.87L235.22 11.87L235.21 12.41L232.02 12.41L232.03 11.87L232.45 11.87L232.45 11.87Q233.06 11.87 233.06 11.70L233.06 11.70L233.06 11.70Q233.06 11.63 232.93 11.27L232.93 11.27L231.89 8.72L228.64 8.72L227.53 11.18L227.53 11.18Q227.40 11.50 227.40 11.63L227.40 11.63L227.40 11.63Q227.40 11.79 227.49 11.83L227.49 11.83L227.49 11.83Q227.59 11.87 227.97 11.87L227.97 11.87L228.55 11.87L228.55 12.41L225.83 12.41ZM230.32 4.79L228.91 8.10L231.65 8.10L230.32 4.79ZM243.10 3.64L243.10 3.64L243.11 3.08L246.25 3.08L246.25 3.64L245.97 3.64L245.97 3.64Q245.52 3.64 245.41 3.66L245.41 3.66L245.41 3.66Q245.24 3.71 245.24 3.82L245.24 3.82L245.24 3.82Q245.24 3.89 245.49 4.31L245.49 4.31L247.50 7.46L249.94 3.99L249.94 3.99Q250.02 3.83 250.03 3.82L250.03 3.82L250.03 3.82Q250.03 3.64 249.12 3.64L249.12 3.64L248.90 3.64L248.88 3.08L251.43 3.08L251.43 3.64L251.36 3.64L251.36 3.64Q251.01 3.64 250.87 3.72L250.87 3.72L250.87 3.72Q250.71 3.80 250.42 4.22L250.42 4.22L247.69 8.17L247.69 11.22L247.69 11.22Q247.69 11.66 247.80 11.77L247.80 11.77L247.80 11.77Q247.90 11.87 248.51 11.87L248.51 11.87L249.15 11.87L249.13 12.41L245.20 12.41L245.21 11.87L245.77 11.87L245.77 11.87Q246.31 11.87 246.43 11.79L246.43 11.79L246.43 11.79Q246.56 11.70 246.56 11.25L246.56 11.25L246.56 8.06L244.26 4.49L244.26 4.49Q243.84 3.84 243.71 3.73L243.71 3.73L243.71 3.73Q243.61 3.64 243.10 3.64Z"></path></g></svg>