<svg data-v-423bf9ae="" xmlns="http://www.w3.org/2000/svg" viewBox="0 0 274.5753988677303 60" class="font"><!----><!----><!----><g data-v-423bf9ae="" id="979f976a-f4df-4792-b9aa-2fb4a794b1cb" fill="black" transform="matrix(5.853238110442626,0,0,5.853238110442626,-0.8194496014435231,-23.354168480912094)"><path d="M3.35 14L5.33 14C5.54 14 5.67 13.96 5.67 13.75C5.67 13.50 5.19 13.55 5.19 13.02L5.21 5.94C5.21 5.67 5.32 5.56 5.57 5.56L7.36 5.56C7.91 5.56 7.78 5.98 8.06 5.98C8.25 5.98 8.33 5.81 8.33 5.28L8.33 4.49C8.33 4.28 8.19 4.20 7.99 4.20L0.50 4.20C0.25 4.20 0.14 4.28 0.14 4.52L0.14 5.40C0.14 5.81 0.21 5.92 0.39 5.92C0.66 5.92 0.50 5.54 1.32 5.54L3.12 5.56C3.46 5.56 3.51 5.70 3.51 5.95L3.49 13.01C3.49 13.51 3.00 13.52 3.00 13.78C3.00 13.96 3.14 14 3.35 14ZM8.89 9.16C8.89 12.52 11.34 14.20 13.82 14.24C16.37 14.28 18.94 12.59 18.94 9.16C18.94 5.71 16.48 4.02 13.99 3.99C11.45 3.98 8.89 5.71 8.89 9.16ZM10.57 9.16C10.57 6.69 12.28 5.47 13.97 5.49C15.64 5.50 17.30 6.72 17.30 9.16C17.30 11.58 15.58 12.78 13.87 12.75C12.21 12.73 10.57 11.52 10.57 9.16ZM20.31 9.72L25.41 9.72C25.56 9.72 25.69 9.63 25.69 9.46L25.69 8.60C25.69 8.39 25.59 8.30 25.38 8.30L20.34 8.30C20.16 8.30 20.06 8.40 20.06 8.55L20.06 9.45C20.06 9.59 20.12 9.72 20.31 9.72ZM27.71 14L31.64 14C34.50 14 36.30 11.80 36.30 9.03C36.30 6.23 34.47 4.20 31.63 4.20L27.75 4.20C27.45 4.20 27.12 4.17 27.12 4.41C27.12 4.76 27.64 4.58 27.64 5.43L27.64 12.81C27.64 13.54 27.09 13.36 27.09 13.72C27.09 13.97 27.43 14 27.71 14ZM29.53 12.56C29.26 12.56 29.19 12.50 29.19 12.18L29.19 5.95C29.19 5.77 29.30 5.66 29.53 5.66L31.18 5.64C33.24 5.63 34.61 6.50 34.61 9.00C34.61 11.44 33.31 12.56 31.18 12.56ZM37.00 9.16C37.00 12.52 39.45 14.20 41.93 14.24C44.48 14.28 47.05 12.59 47.05 9.16C47.05 5.71 44.59 4.02 42.10 3.99C39.56 3.98 37.00 5.71 37.00 9.16ZM38.68 9.16C38.68 6.69 40.39 5.47 42.08 5.49C43.75 5.50 45.42 6.72 45.42 9.16C45.42 11.58 43.69 12.78 41.99 12.75C40.32 12.73 38.68 11.52 38.68 9.16Z"></path></g><!----><!----></svg>